<svg width="24" height="24" xmlns="http://www.w3.org/2000/svg">
 <defs>
  <rect y="289.81766" x="-1.100846" width="7.920719" id="rect2504" height="7.034672"/>
 </defs>
 <g>
  <title>background</title>
  <rect fill="none" id="canvas_background" height="402" width="582" y="-1" x="-1"/>
 </g>
 <g>
  <title fill="#fe346e">Layer 1</title>
  <path clip-rule="nonzero" fill="#fe346e" fill-rule="nonzero" stroke-width="0.999998" stroke-linecap="square" stroke-miterlimit="4" stroke-dashoffset="0" id="path2866" d="m20.268557,8.617193l0,0.49804l0,11.06446l-2.14453,0l0,-9.92188l0,-0.5l-0.99414,0l0,0.5l0,9.92188l-2.13672,0l0,-8.42969l0,-0.50781l-1,0l0,0.50781l0,8.42969l-2.35352,0l-0.49609,0l0,1.00781l0.49609,0l10.41016,0l0.49609,0l0,-1.00781l-0.49609,0l-0.78711,0l0,-11.06446l0,-0.49804l-0.99414,0z"/>
  <path clip-rule="nonzero" fill="#fe346e" fill-rule="nonzero" stroke-width="0.999998" stroke-miterlimit="4" stroke-dashoffset="0" id="ellipse2880" d="m17.196287,2.812503l0,1.00586l0.50586,0l1.3418,0l-3.0332,3.08203l-1.70704,-1.73047l-3.83593,4.13281l-0.21094,0.22657c-0.89111,-0.5754 -1.94761,-0.91211 -3.08203,-0.91211c-3.15584,0 -5.7207,2.58342 -5.7207,5.75781c0,3.17435 2.56486,5.75977 5.7207,5.75977c3.15584,0 5.72656,-2.58542 5.72656,-5.75977c0,-1.66996 -0.7156,-3.17137 -1.84961,-4.22461l0.15039,-0.16211l3.13086,-3.37109l1.67774,1.70117l3.72461,-3.78516l0,1.35938l0,0.5l1,0l0,-0.5l0,-3.08008l-3.03321,0l-0.50586,0zm-10.52734,6.81055c2.61674,0 4.73242,2.11936 4.73242,4.75195c0,2.63255 -2.11568,4.75391 -4.73242,4.75391c-2.61674,0 -4.72656,-2.12136 -4.72656,-4.75391c0,-2.63259 2.10982,-4.75195 4.72656,-4.75195z"/>
  <path clip-rule="nonzero" fill="#fe346e" fill-rule="nonzero" stroke-width="0.999998" stroke-linecap="square" stroke-miterlimit="4" stroke-dashoffset="0" id="path2882" d="m6.674806,11.251953l0,0.50391l0,0.29297l-1.25195,0l0,2.82617l2.50781,0l0,0.82227l-2.00196,0l-0.50585,0l0,1.00586l0.50585,0l0.7461,0l0,0.29101l0,0.50586l1.0039,0l0,-0.50586l0,-0.29101l1.2461,0l0,-2.83399l-2.5,0l0,-0.81445l2.0039,0l0.4961,0l0,-1.00586l-0.4961,0l-0.75,0l0,-0.29297l0,-0.50391l-1.0039,0z"/>
 </g>
</svg>